<svg width="220" height="18" viewBox="0 0 220 18" fill="none" xmlns="http://www.w3.org/2000/svg">
<g clip-path="url(#clip0_2120_20754)">
<path d="M0 0.722656H8.52881C10.6232 0.722656 12.0915 1.24064 13.0631 2.21186C13.7325 2.88092 14.1427 3.7658 14.1427 4.8881V4.93126C14.1427 6.85211 13.0415 7.99599 11.5733 8.64347C13.6029 9.31253 14.8768 10.4564 14.8768 12.701V12.7442C14.8768 15.5931 12.5449 17.3197 8.57199 17.3197H0V0.722656ZM7.38444 7.34851C8.78791 7.34851 9.56522 6.8737 9.56522 5.90248V5.85931C9.56522 4.95284 8.85269 4.43486 7.4708 4.43486H4.49112V7.34851H7.38444ZM8.05379 13.6506C9.45726 13.6506 10.2562 13.1111 10.2562 12.1398V12.0967C10.2562 11.1902 9.54363 10.6075 7.98901 10.6075H4.49112V13.6506H8.05379Z" fill="#333333"/>
<path d="M16.6699 0.722656H21.269V13.3053H29.3228V17.3413H16.6699V0.722656Z" fill="#333333"/>
<path d="M30.4883 10.0896V0.701172H35.1737V9.98169C35.1737 12.3989 36.3829 13.5428 38.2398 13.5428C40.0967 13.5428 41.3058 12.4421 41.3058 10.1112V0.701172H45.9913V9.9601C45.9913 15.3558 42.9252 17.7083 38.1966 17.7083C33.4464 17.7298 30.4883 15.3126 30.4883 10.0896Z" fill="#333333"/>
<path d="M48.1504 0.722656H61.3215V4.65069H52.6415V7.17585H60.501V10.8017H52.6415V13.4348H61.4294V17.3628H48.1504V0.722656Z" fill="#333333"/>
<path d="M63.0703 14.9455L65.6398 11.8376C67.2807 13.1541 69.1161 13.8664 71.0593 13.8664C72.2901 13.8664 72.9594 13.4347 72.9594 12.7009V12.6577C72.9594 11.9671 72.4196 11.5786 70.1525 11.0391C66.6114 10.2189 63.8692 9.20453 63.8692 5.75131V5.70815C63.8692 2.57867 66.3307 0.3125 70.3252 0.3125C73.1537 0.3125 75.3777 1.08947 77.1914 2.55709L74.8811 5.85923C73.3481 4.7801 71.6855 4.19737 70.2172 4.19737C69.0945 4.19737 68.5547 4.67218 68.5547 5.2765V5.31966C68.5547 6.09663 69.1161 6.42037 71.448 6.95994C75.2913 7.80166 77.6665 9.05345 77.6665 12.2045V12.2477C77.6665 15.6793 74.9675 17.7297 70.9298 17.7297C67.9285 17.7297 65.1215 16.78 63.0703 14.9455Z" fill="#333333"/>
<path d="M78.5938 9.05345V9.01028C78.5938 4.19737 82.4371 0.3125 87.576 0.3125C92.7149 0.3125 96.515 4.1542 96.515 8.96712V9.01028C96.515 13.8232 92.6717 17.7081 87.5328 17.7081C82.3939 17.7297 78.5938 13.8664 78.5938 9.05345ZM91.808 9.05345V9.01028C91.808 6.59303 90.0806 4.47794 87.5328 4.47794C85.0065 4.47794 83.3224 6.52829 83.3224 8.94554V8.9887C83.3224 11.406 85.0497 13.521 87.576 13.521C90.1238 13.5426 91.808 11.4707 91.808 9.05345Z" fill="#333333"/>
<path d="M98.0059 10.0896V0.701172H102.691V9.98169C102.691 12.3989 103.9 13.5428 105.757 13.5428C107.614 13.5428 108.823 12.4421 108.823 10.1112V0.701172H113.509V9.98169C113.509 15.3773 110.443 17.7514 105.714 17.7514C100.986 17.7298 98.0059 15.3342 98.0059 10.0896Z" fill="#333333"/>
<path d="M115.646 0.722656H123.506C126.054 0.722656 127.803 1.39172 128.926 2.53559C129.897 3.48523 130.394 4.7586 130.394 6.39888V6.44204C130.394 8.98879 129.033 10.6722 126.982 11.5571L130.955 17.3413H125.644L122.297 12.3125H122.254H120.267V17.3413H115.668V0.722656H115.646ZM123.312 8.68663C124.888 8.68663 125.773 7.93124 125.773 6.72262V6.67945C125.773 5.36291 124.823 4.71544 123.268 4.71544H120.246V8.68663H123.312Z" fill="#333333"/>
<path d="M131.561 9.03206V8.9889C131.561 4.11123 135.296 0.269531 140.327 0.269531C143.717 0.269531 145.919 1.71557 147.387 3.76591L143.911 6.46374C142.961 5.25511 141.86 4.49972 140.284 4.49972C137.952 4.49972 136.311 6.48532 136.311 8.92415V8.96732C136.311 11.4925 137.952 13.4565 140.284 13.4565C142.011 13.4565 143.047 12.6364 144.041 11.4277L147.517 13.9097C145.919 16.1112 143.803 17.7083 140.133 17.7083C135.382 17.7083 131.561 14.0392 131.561 9.03206Z" fill="#333333"/>
<path d="M149.113 0.722656H162.284V4.65069H153.604V7.17585H161.464V10.8017H153.604V13.4348H162.392V17.3628H149.113V0.722656Z" fill="#333333"/>
<path d="M181.652 15.572C181.652 16.6079 180.81 17.4497 179.774 17.4497H166.689C165.653 17.4497 164.811 16.6079 164.811 15.572V2.49292C164.811 1.45696 165.653 0.615234 166.689 0.615234H179.774C180.81 0.615234 181.652 1.45696 181.652 2.49292V15.572Z" fill="#00B0E3"/>
<path d="M200.826 15.572C200.826 16.6079 199.984 17.4497 198.948 17.4497H185.863C184.826 17.4497 183.984 16.6079 183.984 15.572V2.49292C183.984 1.45696 184.826 0.615234 185.863 0.615234H198.948C199.984 0.615234 200.826 1.45696 200.826 2.49292V15.572Z" fill="#F59C07"/>
<path d="M220 15.572C220 16.6079 219.158 17.4497 218.121 17.4497H205.037C204 17.4497 203.158 16.6079 203.158 15.572V2.49292C203.158 1.45696 204 0.615234 205.037 0.615234H218.121C219.158 0.615234 220 1.45696 220 2.49292V15.572Z" fill="#AFCA0B"/>
</g>
<defs>
<clipPath id="clip0_2120_20754">
<rect width="220" height="17.4603" fill="white" transform="translate(0 0.269531)"/>
</clipPath>
</defs>
</svg>
