<?xml version="1.0" encoding="UTF-8"?><svg width="201.6" height="37.8" id="Ebene_1" xmlns="http://www.w3.org/2000/svg" viewBox="0 0 201.64 37.85"><defs><style>.cls-1{fill:#1a1a1a;}</style></defs><path class="cls-1" d="M32.67,17.84V0h1.52c.78,0,1.56-.03,2.34-.1.78-.06,1.59-.1,2.44-.1,1.38,0,2.56.2,3.54.61.98.4,1.74,1.05,2.27,1.95.53.9.8,2.08.8,3.54,0,2.04-.61,3.62-1.83,4.74-1.22,1.12-2.99,1.68-5.3,1.68-.5,0-.91,0-1.23-.01-.32,0-.58-.01-.79-.01v5.53h-3.77ZM36.43,9.5c.3.04.62.07.94.08.32.02.66.02,1,.02.64,0,1.23-.11,1.76-.32.53-.22.96-.59,1.27-1.13.32-.54.47-1.29.47-2.26,0-1.14-.3-2-.89-2.6-.59-.6-1.48-.88-2.68-.84-.3,0-.62.02-.96.05-.34.02-.64.06-.92.12v6.88Z"/><path class="cls-1" d="M58.63,18.03c-1.71.03-3.18-.33-4.42-1.1-1.23-.76-2.17-1.84-2.81-3.24s-.94-3.02-.91-4.88c.04-2.06.43-3.74,1.18-5.06s1.75-2.29,3.01-2.93c1.26-.64,2.7-.98,4.3-1.01,1.64-.03,3.06.32,4.25,1.06s2.11,1.8,2.75,3.17.93,2.99.89,4.85c-.04,2.06-.42,3.75-1.13,5.09-.71,1.34-1.68,2.34-2.9,3-1.22.66-2.63,1.01-4.21,1.04ZM58.71,15.27c1.34,0,2.4-.52,3.18-1.57.78-1.05,1.18-2.69,1.18-4.92,0-1.17-.15-2.22-.46-3.14-.31-.93-.77-1.66-1.39-2.2-.62-.54-1.39-.81-2.32-.81-.83,0-1.59.21-2.29.62s-1.25,1.09-1.66,2.02c-.42.93-.62,2.16-.62,3.7,0,1.18.16,2.24.49,3.19s.82,1.71,1.46,2.27,1.46.85,2.42.85Z"/><path class="cls-1" d="M76.83,17.84h-3.76V0h1.42c.61,0,1.32-.03,2.12-.1.81-.06,1.78-.1,2.9-.1.83,0,1.63.09,2.4.27.77.18,1.45.48,2.06.89.6.41,1.08.97,1.43,1.66.35.7.53,1.56.53,2.59,0,1.16-.19,2.12-.58,2.89-.38.76-.92,1.36-1.61,1.79-.69.43-1.5.71-2.43.86-.32.05-.64.09-.97.14s-.76.08-1.3.11c-.54.03-1.28.04-2.22.04v6.79ZM76.83,8.41c.17.02.4.04.71.06.3.02.61.02.93.02h.76c1.02,0,1.78-.29,2.29-.86.51-.57.76-1.34.76-2.31,0-.54-.09-1.03-.28-1.46-.19-.43-.52-.76-.99-1.01-.47-.24-1.13-.37-1.98-.37-.38,0-.76.02-1.14.05-.38.04-.74.09-1.06.16v5.7ZM82.99,17.84c-.1-.14-.19-.29-.27-.46-.08-.17-.2-.45-.38-.83-.25-.54-.48-1.12-.69-1.74s-.43-1.22-.67-1.79c-.23-.57-.5-1.04-.8-1.42-.3-.38-.67-.58-1.1-.61l1.06-.83,2.34-.16c.46.2.86.54,1.21,1.03.35.48.67,1.04.96,1.67.29.63.58,1.28.86,1.96.28.67.59,1.3.92,1.87.12.22.24.44.37.66s.25.43.37.65h-4.16Z"/><path class="cls-1" d="M97.66,18.03c-.82,0-1.6-.06-2.34-.18-.74-.12-1.37-.26-1.91-.43s-.92-.32-1.14-.46l.56-2.98c.3.18.69.35,1.17.52.48.17,1.02.32,1.6.43.58.12,1.17.17,1.76.17.95,0,1.66-.15,2.12-.44s.7-.77.7-1.43c0-.46-.13-.85-.38-1.17-.26-.32-.66-.63-1.21-.93-.55-.3-1.26-.66-2.13-1.08-.74-.36-1.44-.79-2.1-1.28-.66-.5-1.19-1.09-1.6-1.78-.41-.69-.61-1.49-.61-2.41,0-.83.16-1.55.49-2.15.32-.6.77-1.1,1.34-1.49.57-.39,1.23-.67,1.97-.86.75-.18,1.55-.28,2.41-.28,1.23,0,2.25.12,3.04.35.79.23,1.34.45,1.66.65l-.64,2.86c-.38-.27-.9-.52-1.56-.74-.66-.22-1.42-.33-2.28-.33-.57,0-1.06.07-1.48.2-.42.14-.75.33-.98.59s-.35.58-.35.95c0,.45.11.83.33,1.15.22.32.57.62,1.05.91.48.29,1.1.63,1.87,1,.7.33,1.34.67,1.93,1.03s1.11.75,1.56,1.17.8.91,1.04,1.45.37,1.17.37,1.87c0,1.07-.25,1.99-.76,2.75-.5.76-1.23,1.35-2.17,1.75-.94.4-2.06.6-3.35.6Z"/><path class="cls-1" d="M109.05,8.97c0-1.5.23-2.81.68-3.95.46-1.14,1.09-2.1,1.9-2.87.81-.77,1.74-1.35,2.8-1.75,1.06-.39,2.19-.59,3.4-.59.86,0,1.57.05,2.15.14.58.09,1.07.19,1.46.3.4.11.75.19,1.06.26l-.5,3.26c-.15-.1-.38-.22-.69-.38-.31-.16-.72-.3-1.25-.42-.52-.12-1.18-.19-1.96-.19-1.02,0-1.92.24-2.7.71s-1.4,1.15-1.85,2.04c-.45.89-.67,1.96-.67,3.22s.21,2.36.62,3.31,1.02,1.7,1.82,2.24,1.78.81,2.93.81c.54,0,1.08-.06,1.63-.18.55-.12,1.04-.27,1.48-.44.43-.17.75-.34.96-.51v3.11c-.32.13-.69.26-1.1.41s-.89.27-1.43.37c-.54.1-1.17.16-1.88.16-1.86,0-3.44-.37-4.76-1.12-1.32-.75-2.33-1.8-3.04-3.16-.7-1.36-1.06-2.95-1.06-4.78Z"/><path class="cls-1" d="M128.53,17.84V0h3.77v7.45h7V0h3.74v17.83h-3.74v-7.62h-7v7.62h-3.77Z"/><path class="cls-1" d="M150.17,17.84V0h10.88v2.83h-7.14v4.48h5.41v2.77h-5.41v4.86h7.9v2.89h-11.64Z"/><path class="cls-1" d="M33.25,37.84v-17.83h1.99v17.83h-1.99Z"/><path class="cls-1" d="M38.56,37.84v-17.83h1.85l8.21,12.41,2.4,4.2h-.7l-.17-4.94v-11.66h1.8v17.83h-1.8l-8.06-12.12-2.66-4.54h.79l.17,5.28v11.38h-1.82Z"/><path class="cls-1" d="M54.93,37.84v-17.83h9.96v1.54h-7.99v6.58h5.98v1.54h-5.98v8.18h-1.97Z"/><path class="cls-1" d="M72.25,38.03c-1.64.03-3.05-.35-4.24-1.13s-2.09-1.88-2.72-3.28c-.63-1.4-.93-2.99-.89-4.78.04-1.98.43-3.64,1.17-4.98.74-1.34,1.72-2.34,2.95-3.02,1.22-.68,2.59-1.02,4.09-1.03,1.57,0,2.93.36,4.09,1.12,1.16.75,2.04,1.81,2.66,3.17s.9,2.96.86,4.78c-.04,1.98-.41,3.64-1.1,4.99-.7,1.35-1.64,2.37-2.83,3.07-1.19.7-2.53,1.06-4.04,1.09ZM72.3,36.5c1.77-.02,3.19-.68,4.27-1.99s1.63-3.22,1.66-5.71c0-1.37-.21-2.62-.64-3.75-.43-1.13-1.06-2.04-1.91-2.71-.84-.68-1.89-1.01-3.14-1-1.14,0-2.18.29-3.1.86-.92.56-1.65,1.41-2.2,2.54-.54,1.13-.82,2.54-.83,4.24,0,1.36.21,2.61.65,3.76s1.1,2.06,1.97,2.75c.88.69,1.96,1.03,3.26,1.03Z"/><path class="cls-1" d="M84.11,37.84h-1.97v-17.83c.35,0,.62-.01.81-.02.19,0,.3,0,.34,0,.57,0,1.22-.02,1.96-.07.74-.05,1.49-.07,2.26-.07.9,0,1.73.09,2.48.26.75.18,1.39.46,1.94.84s.96.89,1.26,1.52c.3.63.44,1.39.44,2.3,0,1.02-.19,1.9-.58,2.63-.39.73-.93,1.31-1.61,1.73-.69.43-1.48.7-2.39.82-.38.06-.81.09-1.27.11-.46.02-1,.03-1.6.02-.6,0-1.29-.01-2.08-.02v7.78ZM84.11,28.67c.19.02.51.03.95.04.44.01.89.02,1.35.02.46,0,.8,0,1.03,0,1.25-.02,2.25-.34,3.02-.98.76-.64,1.15-1.61,1.16-2.9,0-.85-.16-1.53-.47-2.05s-.79-.9-1.45-1.14c-.65-.24-1.49-.36-2.5-.36-.53,0-1.09.01-1.67.04-.59.03-1.06.08-1.42.15v7.18ZM92.63,37.84c-.1-.12-.18-.26-.26-.43s-.2-.42-.36-.77c-.26-.54-.55-1.18-.85-1.9-.3-.72-.63-1.43-.98-2.12s-.75-1.28-1.18-1.77-.91-.77-1.43-.84l.82-.6,1.2.14c.5.15.96.5,1.39,1.03.43.54.83,1.17,1.2,1.89.37.72.73,1.46,1.06,2.2.34.74.66,1.39.98,1.96.12.22.24.44.35.64.11.2.22.39.32.56h-2.26Z"/><path class="cls-1" d="M95.87,37.84l1.9-17.83h2.81l3.96,11.59.86,3.34.86-3.34,3.72-11.59h2.66l2.3,17.83h-1.99l-1.25-11.09-.53-5.28-1.44,5.28-3.79,11.26h-1.08l-3.98-11.26-1.58-5.28-.46,5.28-1.06,11.09h-1.92Z"/><path class="cls-1" d="M117.61,37.84h-2.09l6.89-18.02h1.94l6.74,18.02h-2.11l-5.11-14.52-.48-1.42-.48,1.42-5.3,14.52ZM118.62,32.95l.36-1.49h8.45l.38,1.49h-9.19Z"/><path class="cls-1" d="M134.96,37.84v-16.3h-5.76v-1.54h13.61v1.54h-5.83v16.3h-2.02Z"/><path class="cls-1" d="M144.54,37.84v-17.83h1.99v17.83h-1.99Z"/><path class="cls-1" d="M149.84,37.84v-17.83h1.92v9.7l7.97-9.7h2.35l-7.08,8.42-.22.26-3.5,3.98.48-1.7v6.86h-1.92ZM159.42,36.52c-.34-.59-.74-1.25-1.21-1.97-.47-.72-.96-1.46-1.48-2.22-.51-.76-1-1.48-1.46-2.16-.46-.68-.85-1.28-1.16-1.78l.7-.36.7-.82c.18.3.46.73.83,1.29s.8,1.18,1.27,1.88c.48.7.96,1.42,1.46,2.17.5.74.97,1.46,1.41,2.15.44.69.82,1.31,1.12,1.84.02.04.1.16.22.35.12.2.24.39.36.59.12.2.19.31.22.35h-2.26c-.1-.14-.19-.31-.28-.5-.09-.19-.24-.46-.44-.82Z"/></svg>