<svg id="Layer_1" data-name="Layer 1" xmlns="http://www.w3.org/2000/svg" viewBox="0 0 317.17 104.18"><defs><style>.cls-1,.cls-2{fill:#5582ab;}.cls-1{fill-rule:evenodd;}.cls-3{fill:#fff;}.cls-4{fill:#1d1d1b;}</style></defs><path class="cls-1" d="M142.81,18.94H123V38.58l19.85.09a9.94,9.94,0,0,0,9.85-9.91,9.92,9.92,0,0,0-9.85-9.82Zm8.39,49.37L139.73,48.58H123V68.31h-9.84V9h29.69a19,19,0,0,1,14,5.81,19,19,0,0,1,5.81,13.92A19.14,19.14,0,0,1,159.07,40,19.19,19.19,0,0,1,150.34,47l12.24,21.27Z" transform="translate(-0.15 -0.35)"/><rect class="cls-2" x="178.43" y="8.68" width="9.84" height="59.28"/><path class="cls-1" d="M221.72,43.62a16.66,16.66,0,0,1-12.23-5,16.71,16.71,0,0,1-5.05-12.3,16.5,16.5,0,0,1,5.05-12.13A16.35,16.35,0,0,1,221.72,9H253.9v9.91H221.72a7.3,7.3,0,0,0-2.9.59,6.73,6.73,0,0,0-2.4,1.54,7.63,7.63,0,0,0-1.63,2.39,8,8,0,0,0-.51,2.82,7.36,7.36,0,0,0,2.14,5.3,7.08,7.08,0,0,0,5.3,2.22h14.81a16.7,16.7,0,0,1,12.24,5,16.48,16.48,0,0,1,5.13,12.21,17.36,17.36,0,0,1-17.37,17.26H204.44V58.4h32.09a8,8,0,0,0,2.91-.52,8.71,8.71,0,0,0,2.4-1.53A6.73,6.73,0,0,0,243.38,54a7.25,7.25,0,0,0-1.63-8.12,7,7,0,0,0-5.22-2.22Z" transform="translate(-0.15 -0.35)"/><path class="cls-1" d="M296.36,9a28.62,28.62,0,0,1,11.47,2.3,30.22,30.22,0,0,1,9.5,6.41l-7,7a19,19,0,0,0-13.95-5.8,19.5,19.5,0,0,0-7.71,1.53,20.26,20.26,0,0,0-6.33,4.27A21.11,21.11,0,0,0,278,31a19.95,19.95,0,0,0,0,15.37,22,22,0,0,0,4.28,6.32,19.73,19.73,0,0,0,6.25,4.19,20.08,20.08,0,0,0,7.79,1.54,19.38,19.38,0,0,0,13.95-5.73l7,6.92a30.05,30.05,0,0,1-9.5,6.41,28.46,28.46,0,0,1-11.47,2.31A29.07,29.07,0,0,1,284.8,66a32.2,32.2,0,0,1-9.5-6.41,31,31,0,0,1-6.42-9.39,28.92,28.92,0,0,1-2.31-11.53,28.46,28.46,0,0,1,2.31-11.36,30.53,30.53,0,0,1,6.42-9.48,30.05,30.05,0,0,1,9.5-6.41A28.28,28.28,0,0,1,296.36,9Z" transform="translate(-0.15 -0.35)"/><path d="M113.88,91.23a11.24,11.24,0,0,0,6,2c1.92,0,3.3-.82,3.3-2.6,0-2.13-2-2.43-4.52-3.17-2.69-.83-5.22-2-5.22-5.48s2.61-5.59,6.5-5.59a11.9,11.9,0,0,1,5.72,1.41V81.2a11.17,11.17,0,0,0-5.75-1.81c-1.81,0-3.09.71-3.09,2.34,0,2,2,2.31,4.34,3,2.85.88,5.4,2.13,5.4,5.67s-2.71,5.8-6.7,5.8a13.25,13.25,0,0,1-6-1.46Z" transform="translate(-0.15 -0.35)"/><path d="M136.18,82.55a6.84,6.84,0,1,1-7.1,6.84A6.83,6.83,0,0,1,136.18,82.55Zm0,10.86a4,4,0,1,0-3.88-4A3.88,3.88,0,0,0,136.18,93.41Z" transform="translate(-0.15 -0.35)"/><path d="M147.49,85.59h-2V82.85h2V80.61a5.59,5.59,0,0,1,1.28-4.15,4.85,4.85,0,0,1,3.38-1.15,6.48,6.48,0,0,1,2.1.32v2.72a8.18,8.18,0,0,0-1.81-.24c-1.43,0-1.73,1-1.73,2.21v2.53h3.2v2.74h-3.2V95.94h-3.22Z" transform="translate(-0.15 -0.35)"/><path d="M165,95.62a5.87,5.87,0,0,1-2.66.61A4.18,4.18,0,0,1,159.1,95c-.67-.72-1.07-1.81-1.07-3.75V85.59h-2.29V82.85H158V79.36l3.22-.56v4H165v2.74h-3.7v5.16c0,1.46.27,2.69,1.73,2.69a4.39,4.39,0,0,0,2-.56Z" transform="translate(-0.15 -0.35)"/><path d="M166.81,82.85h3.41l1.65,5c.42,1.28.82,2.55,1.22,3.91h.06c.39-1.22.9-2.71,1.33-3.91l1.75-5h2.34l1.79,5c.48,1.36.93,2.66,1.33,3.91h.05c.37-1.28.8-2.61,1.23-3.91l1.65-5h3.24l-4.5,13.09H180.2l-1.63-4.55c-.42-1.2-.85-2.48-1.22-3.65h0c-.38,1.17-.77,2.37-1.23,3.65l-1.59,4.55h-3.17Z" transform="translate(-0.15 -0.35)"/><path d="M197.68,95a6.27,6.27,0,0,1-3.88,1.25,5.13,5.13,0,0,1-3-.88,3.61,3.61,0,0,1-1.46-3A3.69,3.69,0,0,1,191,89.18a6.55,6.55,0,0,1,3.67-.91,10.83,10.83,0,0,1,2.53.3v-.78a2.34,2.34,0,0,0-.64-1.78,3.31,3.31,0,0,0-2.21-.64,7.49,7.49,0,0,0-3.94,1.17V83.62a9,9,0,0,1,4.42-1.07,6.54,6.54,0,0,1,4.2,1.23,4.27,4.27,0,0,1,1.39,3.48v5c0,.72.26,1.23.9,1.23a1.64,1.64,0,0,0,.72-.19v2.53a4,4,0,0,1-1.6.32,3.29,3.29,0,0,1-2.69-1.2Zm-.5-4.31a8.49,8.49,0,0,0-2-.27c-1.33,0-2.63.43-2.63,1.71,0,1.06.93,1.57,2.07,1.57a4.68,4.68,0,0,0,2.59-.8Z" transform="translate(-0.15 -0.35)"/><path d="M205,82.85h3.2v1.83l.05,0a4.56,4.56,0,0,1,3.8-2,3.27,3.27,0,0,1,.88.11v3.09a4.13,4.13,0,0,0-1.06-.14,4.31,4.31,0,0,0-3.65,1.94v8.23H205Z" transform="translate(-0.15 -0.35)"/><path d="M218,90.27c.4,2.18,2.13,3.3,4.34,3.3a7.74,7.74,0,0,0,4.47-1.52v3A9.54,9.54,0,0,1,222,96.23c-4.2,0-7.29-2.71-7.29-6.81a6.63,6.63,0,0,1,6.68-6.87c3.25,0,6.12,2.21,6.12,6.42a10.43,10.43,0,0,1-.08,1.3ZM224.5,88a3.06,3.06,0,0,0-3.14-2.87A3.38,3.38,0,0,0,218,88Z" transform="translate(-0.15 -0.35)"/><path d="M254.15,94.45a13.18,13.18,0,0,1-6.63,1.78c-5.93,0-10.24-4.15-10.24-9.87s4.28-10,10.35-10a11.65,11.65,0,0,1,5.91,1.54v3.54a9.91,9.91,0,0,0-5.88-2,6.89,6.89,0,1,0,0,13.78,7.27,7.27,0,0,0,3.14-.66v-3.7H247V86h7.16Z" transform="translate(-0.15 -0.35)"/><path d="M275.78,88.27a3.06,3.06,0,0,0-.58-2.18,2.13,2.13,0,0,0-1.68-.69,4.9,4.9,0,0,0-3.27,1.54c0,.24,0,.51,0,.8v8.2h-3.22V88.27a3,3,0,0,0-.53-2.18,2.2,2.2,0,0,0-1.7-.69A4.85,4.85,0,0,0,261.55,87v9h-3.22V82.85h3.19v1.38l.05,0a6.14,6.14,0,0,1,4.18-1.71,4.28,4.28,0,0,1,3.91,2,7,7,0,0,1,4.79-2,4.54,4.54,0,0,1,3.41,1.33A5.33,5.33,0,0,1,279,87.74v8.2h-3.22Z" transform="translate(-0.15 -0.35)"/><path d="M283.31,75.61h3.22v7.9l.06,0a6.38,6.38,0,0,1,3.45-1,6.29,6.29,0,0,1,6.29,6.63,6.8,6.8,0,0,1-7,7,8.37,8.37,0,0,1-3.28-.69l-2.74.48Zm5.91,17.93c2.42,0,3.86-1.89,3.86-4.2s-1.41-4-3.73-4a4.88,4.88,0,0,0-2.82.93v6.6A5.83,5.83,0,0,0,289.22,93.54Z" transform="translate(-0.15 -0.35)"/><path d="M299.94,76.67h3.38v7.77h9.4V76.67h3.38V95.94h-3.38V87.45h-9.4v8.49h-3.38Z" transform="translate(-0.15 -0.35)"/><path class="cls-2" d="M95.68,62.11,75.06,82.73h7.55v9.91H58.53V68.54h9.91V76.1L89.05,55.48Z" transform="translate(-0.15 -0.35)"/><path class="cls-3" d="M49.21,15.64,28.59,36.26h7.55v9.91H12.06V22.07H22v7.55L42.58,9Z" transform="translate(-0.15 -0.35)"/><path d="M42.58,11.62l4,4L27.28,35l-3.15,3.16H34.29v6.21H13.91V23.92h6.2V34.09l3.16-3.16L42.58,11.62m0-2.61L22,29.62V22.07h-9.9V46.16H36.14V36.25H28.59L49.21,15.64,42.58,9Z" transform="translate(-0.15 -0.35)"/><path class="cls-3" d="M15.41,55.44,36,76.06V68.51h9.91V92.59H21.84v-9.9H29.4L8.78,62.08Z" transform="translate(-0.15 -0.35)"/><path d="M15.41,58.06,34.72,77.37l3.16,3.16V70.36h6.21V90.74H23.69v-6.2H33.86L30.7,81.39,11.39,62.08l4-4m0-2.62L8.78,62.08,29.4,82.69H21.84v9.9H45.93V68.51H36v7.55L15.41,55.44Z" transform="translate(-0.15 -0.35)"/><path class="cls-3" d="M61.88,9,82.5,29.59V22H92.4V46.12H68.32v-9.9h7.55L55.25,15.6Z" transform="translate(-0.15 -0.35)"/><path d="M61.88,11.59,81.19,30.9l3.16,3.16V23.89h6.21V44.27H70.16v-6.2H80.33l-3.16-3.16L57.86,15.6l4-4m0-2.62L55.25,15.6,75.87,36.22H68.32v9.9H92.4V22H82.49v7.55L61.88,9Z" transform="translate(-0.15 -0.35)"/><circle class="cls-4" cx="5.62" cy="52.09" r="5.62"/><circle class="cls-4" cx="52.09" cy="5.62" r="5.62"/><circle class="cls-4" cx="98.56" cy="52.09" r="5.62"/><circle class="cls-4" cx="52.09" cy="98.56" r="5.62"/></svg>